#!OML:ASF F:\VICON\USERDATA\INSTALL\Justin_Nancy\Justin_Nancy.ASF
:FULLY-SPECIFIED
:DEGREES
111
root 0.917375 17.5618 -13.3975 -2.72629 -1.15345 4.04851
lowerback 6.54598 0.293817 -4.02452
upperback 1.54274 0.140315 0.840888
thorax -2.08841 0.0888287 3.11888
lowerneck -15.5764 -3.03902 -9.76718
upperneck 22.8222 -2.71354 4.12634
head 10.0445 -1.6287 2.73133
rclavicle 4.96962e-016 -7.15625e-015
rhumerus -28.6072 -16.7431 -78.906
rradius 27.2455
rwrist 13.9961
rhand -17.4004 9.60469
rfingers 7.12502
rthumb 8.84896 -20.1898
lclavicle 4.96962e-016 -7.15625e-015
lhumerus -28.6788 8.75551 85.9347
lradius 22.9019
lwrist -15.1841
lhand -11.5998 28.3733
lfingers 7.12502
lthumb 14.4426 57.8508
rfemur -19.8134 -3.44202 15.65
rtibia 74.6679
rfoot 8.54127 -1.5526
rtoes 3.17944
lfemur -9.72945 -0.211449 -29.0685
ltibia 24.0914
lfoot -8.41395 1.49523
ltoes 4.52122
112
root 0.918043 17.5427 -13.2604 -2.79576 -1.02829 4.06022
lowerback 6.5005 0.182006 -4.07716
upperback 1.5815 -0.00853976 0.879895
thorax -2.01037 0.0124697 3.20106
lowerneck -15.6077 -3.0324 -9.77167
upperneck 23.0093 -2.68466 4.055
head 10.1151 -1.62756 2.71279
rclavicle 7.00716e-015 -1.11319e-014
rhumerus -28.8865 -17.1865 -78.7576
rradius 27.0061
rwrist 13.8776
rhand -17.5008 9.70007
rfingers 7.12502
rthumb 8.7521 -20.0985
lclavicle 7.00716e-015 -1.11319e-014
lhumerus -28.3696 8.31991 85.9928
lradius 23.3663
lwrist -14.5291
lhand -11.928 28.7057
lfingers 7.12502
lthumb 14.1264 58.2055
rfemur -20.8755 -3.69017 15.6526
rtibia 74.9502
rfoot 7.02154 -2.18206
rtoes 2.44962
lfemur -9.37428 -0.264776 -29.1301
ltibia 24.5203
lfoot -9.07494 1.6133
ltoes 3.94559
113
root 0.916084 17.5267 -13.1376 -2.74405 -0.605153 4.26685
lowerback 6.75207 0.0148383 -4.37542
upperback 1.37457 -0.265303 0.902529
thorax -2.34081 -0.102597 3.41649
lowerneck -15.3461 -2.91796 -9.82595
upperneck 23.098 -2.53609 4.04185
head 10.0864 -1.56973 2.7398
rclavicle -1.60022e-014 5.56597e-015
rhumerus -29.6537 -17.3447 -78.4959
rradius 27.1452
rwrist 13.4386
rhand -17.3913 9.55842
rfingers 7.12502
rthumb 8.85779 -20.2357
lclavicle -1.60022e-014 5.56597e-015
lhumerus -28.3024 8.07965 86.0579
lradius 23.8844
lwrist -14.1715
lhand -11.9842 29.3109
lfingers 7.12502
lthumb 14.0723 58.8145
rfemur -22.055 -4.18924 15.4241
rtibia 75.0649
rfoot 5.37812 -2.78381
rtoes 1.01596
lfemur -9.19519 -0.195121 -29.3822
ltibia 24.9548
lfoot -9.68473 1.27213
ltoes 4.39614
114
root 0.914085 17.5188 -13.0175 -2.57858 -0.0378698 4.50955
lowerback 6.89787 -0.149198 -4.73121
upperback 1.15315 -0.519333 0.932792
thorax -2.62455 -0.214993 3.67388
lowerneck -15.0649 -2.87124 -9.88788
upperneck 23.0803 -2.4778 4.01364
head 10.0231 -1.55374 2.74891
rclavicle 1.06847e-015 7.95139e-016
rhumerus -30.4123 -17.7739 -78.0787
rradius 27.2144
rwrist 13.1802
rhand -17.4094 9.83151
rfingers 7.12502
rthumb 8.84026 -19.9633
lclavicle 1.06847e-015 7.95139e-016
lhumerus -28.0241 7.9672 86.1452
lradius 24.1262
lwrist -14.0029
lhand -12.0724 29.3226
lfingers 7.12502
lthumb 13.9872 58.832
rfemur -23.2744 -4.77106 15.1516
rtibia 74.9504
rfoot 4.02866 -3.43048
rtoes 0.887649
lfemur -9.16725 -0.179947 -29.6758
ltibia 25.4209
lfoot -10.1917 0.849113
ltoes 4.05662
115
root 0.915645 17.511 -12.8835 -2.50111 0.076481 4.4926
lowerback 6.70721 -0.161305 -4.71889
upperback 1.21784 -0.523361 0.950266
thorax -2.45057 -0.222896 3.68274
lowerneck -15.1686 -2.90656 -9.74137
upperneck 23.109 -2.51875 3.87297
head 10.0526 -1.57543 2.66866
rclavicle -6.55989e-015 -1.59028e-015
rhumerus -30.7067 -18.3888 -77.8271
rradius 27.1645
rwrist 12.6899
rhand -17.3473 10.1299
rfingers 7.12502
rthumb 8.90026 -19.6624
lclavicle -6.55989e-015 -1.59028e-015
lhumerus -27.4433 7.5714 86.1875
lradius 24.324
lwrist -13.3915
lhand -12.4207 28.361
lfingers 7.12502
lthumb 13.6516 57.8933
rfemur -24.3518 -4.81568 15.2375
rtibia 74.5522
rfoot 3.17826 -4.29747
rtoes 2.1278
lfemur -9.00074 -0.133419 -29.6878
ltibia 25.8107
lfoot -10.6647 0.844515
ltoes 3.79267
